<?xml version="1.0" encoding="utf-8"?>
<!-- Generator: Adobe Illustrator 24.2.0, SVG Export Plug-In . SVG Version: 6.00 Build 0)  -->
<svg version="1.1" id="Ebene_1" xmlns="http://www.w3.org/2000/svg" xmlns:xlink="http://www.w3.org/1999/xlink" x="0px" y="0px"
	 viewBox="0 0 511.9 80.1" style="enable-background:new 0 0 511.9 80.1;" xml:space="preserve">
<style type="text/css">
	.st0{fill:#DCF1FF;}
	.st1{font-family:'Swiss721BT-BlackCondensedItalic';}
	.st2{font-size:72px;}
	.st3{fill:#FFFFFF;}
	.st4{fill:none;stroke:#DCF1FF;stroke-width:5;stroke-miterlimit:10;stroke-dasharray:6,6;}
	.st5{fill:none;stroke:#FFFFFF;stroke-width:5;stroke-miterlimit:10;}
</style>
<rect width="511.9" height="80.1"/>
<text transform="matrix(1 0 0 1 5.1119 63.0712)" class="st0 st1 st2">A</text>
<text transform="matrix(1 0 0 1 45.0119 63.0712)" class="st3 st1 st2">rgus</text>
<text transform="matrix(1 0 0 1 177.4119 63.0712)" class="st0 st1 st2">Eye</text>
<text transform="matrix(1 0 0 1 283.0118 63.0712)" class="st3 st1 st2">s.AI</text>
<path class="st4" d="M471.9,13.7c-6.7,0-13,2.6-17.7,7.3c-4.7,4.7-7.3,11.1-7.3,17.7c0,6.7,2.6,13,7.3,17.7s11.1,7.3,17.7,7.3"/>
<path class="st5" d="M463.6,8.6c-13.5,3.7-22.9,16.1-22.9,30.1s9.4,26.3,22.9,30.1c13.5,3.8,27.9-2,35.1-14c0.6-1,1.4-1.8,2.4-2.3
	c5.1-2.7,8.3-8,8.3-13.8s-3.2-11.1-8.3-13.8c-1-0.5-1.8-1.3-2.4-2.3C491.5,10.5,477.1,4.8,463.6,8.6z"/>
</svg>
